<svg width="16" height="16" viewBox="0 0 16 16" fill="none" xmlns="http://www.w3.org/2000/svg">
<rect width="16" height="16" rx="3" fill="#FF4300"/>
<path d="M8.455 7.94941C8.455 6.74086 9.41141 5.6975 10.6634 5.6975C11.7416 5.6975 12.8893 6.46263 12.9327 7.84508C12.9414 8.04505 12.924 8.23633 12.898 8.38414H9.67225C9.77659 8.81888 10.1592 9.07971 10.6634 9.07971C11.0721 9.07971 11.2721 8.9406 11.4112 8.82757L12.7588 8.83626C12.4111 9.62748 11.6198 10.1839 10.6982 10.1839C9.44619 10.1839 8.455 9.18405 8.455 7.94941ZM9.67225 7.4799H11.7242C11.5503 7.07125 11.1329 6.80172 10.6982 6.80172C10.1939 6.80172 9.84614 7.07125 9.67225 7.4799Z" fill="white"/>
<path d="M8.42 8.38375C8.42 8.06875 8.42 7.78 8.42 7.47904H8.50399C8.44186 7.77724 8.4375 8.08625 8.49682 8.38375H8.42Z" fill="white"/>
<path d="M7.545 7.94941C7.545 6.74086 6.58859 5.6975 5.33656 5.6975C4.25843 5.6975 3.11073 6.46263 3.06726 7.84508C3.05857 8.04505 3.07596 8.23633 3.10204 8.38414H6.32775C6.22342 8.81888 5.84085 9.07971 5.33656 9.07971C4.92791 9.07971 4.72794 8.9406 4.58882 8.82757L3.24115 8.83626C3.58894 9.62748 4.38015 10.1839 5.30178 10.1839C6.55381 10.1839 7.545 9.18405 7.545 7.94941ZM6.32775 7.4799H4.27582C4.44971 7.07125 4.86705 6.80172 5.30178 6.80172C5.80607 6.80172 6.15386 7.07125 6.32775 7.4799Z" fill="white"/>
<path d="M8.42 8.38375C8.42 8.06875 8.42 7.78 8.42 7.47904H7.49601C7.55814 7.77724 7.5625 8.08625 7.50318 8.38375H8.42Z" fill="white"/>
<path d="M11.0625 11.875C11.5796 11.875 12.0916 11.7732 12.5693 11.5753C13.047 11.3774 13.4811 11.0874 13.8467 10.7217C14.2124 10.3561 14.5024 9.92204 14.7003 9.44432C14.8982 8.9666 15 8.45458 15 7.9375C15 7.42042 14.8982 6.9084 14.7003 6.43068C14.5024 5.95296 14.2124 5.5189 13.8467 5.15327C13.4811 4.78764 13.047 4.4976 12.5693 4.29972C12.0916 4.10185 11.5796 4 11.0625 4V4.96246C11.4532 4.96246 11.84 5.03941 12.201 5.18892C12.5619 5.33843 12.8899 5.55757 13.1662 5.83383C13.4424 6.11009 13.6616 6.43805 13.8111 6.799C13.9606 7.15995 14.0375 7.54681 14.0375 7.9375C14.0375 8.32819 13.9606 8.71505 13.8111 9.076C13.6616 9.43695 13.4424 9.76491 13.1662 10.0412C12.8899 10.3174 12.5619 10.5366 12.201 10.6861C11.84 10.8356 11.4532 10.9125 11.0625 10.9125V11.875Z" fill="white"/>
<path d="M4.9375 11.875C4.42042 11.875 3.9084 11.7732 3.43068 11.5753C2.95296 11.3774 2.5189 11.0874 2.15327 10.7217C1.78764 10.3561 1.4976 9.92204 1.29972 9.44432C1.10185 8.9666 1 8.45458 1 7.9375C1 7.42042 1.10185 6.9084 1.29972 6.43068C1.4976 5.95296 1.78764 5.5189 2.15327 5.15327C2.5189 4.78764 2.95296 4.4976 3.43068 4.29972C3.9084 4.10185 4.42042 4 4.9375 4L4.9375 4.96246C4.54681 4.96246 4.15995 5.03941 3.799 5.18892C3.43805 5.33843 3.11009 5.55757 2.83383 5.83383C2.55757 6.11009 2.33843 6.43805 2.18892 6.799C2.03941 7.15995 1.96246 7.54681 1.96246 7.9375C1.96246 8.32819 2.03941 8.71505 2.18892 9.076C2.33843 9.43695 2.55757 9.76491 2.83383 10.0412C3.11009 10.3174 3.43805 10.5366 3.799 10.6861C4.15995 10.8356 4.54681 10.9125 4.9375 10.9125L4.9375 11.875Z" fill="white"/>
<path d="M4.9375 4H11.0625V4.96246H4.9375L4.9375 4Z" fill="white"/>
<path d="M4.9375 10.9125H11.0625V11.875H4.9375L4.9375 10.9125Z" fill="white"/>
</svg>
