<svg width="2088" height="1301" viewBox="0 0 2088 1301" fill="none" xmlns="http://www.w3.org/2000/svg">
<rect width="2088" height="1301" fill="white"/>
<path d="M1085.9 358.808C1085.9 255.13 1167.95 165.624 1275.36 165.624C1367.85 165.624 1466.31 231.262 1470.04 349.858C1470.78 367.013 1469.29 383.423 1467.05 396.103H1190.33C1199.28 433.397 1232.1 455.774 1275.36 455.774C1310.42 455.774 1327.57 443.84 1339.51 434.143L1455.12 434.889C1425.28 502.765 1357.41 550.501 1278.34 550.501C1170.94 550.501 1085.9 464.724 1085.9 358.808ZM1190.33 318.53H1366.36C1351.44 283.474 1315.64 260.351 1278.34 260.351C1235.08 260.351 1205.25 283.474 1190.33 318.53Z" fill="#FF4300"/>
<path d="M1082.9 396.069C1082.9 369.046 1082.9 344.275 1082.9 318.456H1090.11C1084.78 344.039 1084.4 370.547 1089.49 396.069H1082.9Z" fill="#FF4300"/>
<path d="M1007.84 358.808C1007.84 255.13 925.791 165.624 818.383 165.624C725.893 165.624 627.436 231.262 623.706 349.858C622.96 367.013 624.452 383.423 626.69 396.103H903.414C894.463 433.397 861.644 455.774 818.383 455.774C783.326 455.774 766.171 443.84 754.236 434.143L638.624 434.889C668.459 502.765 736.335 550.501 815.399 550.501C922.807 550.501 1007.84 464.724 1007.84 358.808ZM903.414 318.53H727.384C742.302 283.474 778.105 260.351 815.399 260.351C858.661 260.351 888.496 283.474 903.414 318.53Z" fill="#FF4300"/>
<path d="M1082.9 396.069C1082.9 369.046 1082.9 344.275 1082.9 318.456H1003.64C1008.97 344.039 1009.34 370.547 1004.25 396.069H1082.9Z" fill="#FF4300"/>
<path d="M1309.59 695.573C1353.95 695.573 1397.88 686.836 1438.86 669.861C1479.84 652.885 1517.08 628.004 1548.45 596.638C1579.81 565.271 1604.69 528.034 1621.67 487.052C1638.64 446.07 1647.38 402.145 1647.38 357.787C1647.38 313.428 1638.64 269.503 1621.67 228.521C1604.69 187.539 1579.81 150.302 1548.45 118.935C1517.08 87.569 1479.84 62.6878 1438.86 45.7125C1397.88 28.7371 1353.95 20 1309.59 20V102.567C1343.11 102.567 1376.3 109.168 1407.26 121.994C1438.23 134.82 1466.36 153.62 1490.06 177.319C1513.76 201.018 1532.56 229.153 1545.39 260.118C1558.21 291.083 1564.81 324.271 1564.81 357.787C1564.81 391.303 1558.21 424.49 1545.39 455.455C1532.56 486.42 1513.76 514.555 1490.06 538.254C1466.36 561.954 1438.23 580.753 1407.26 593.579C1376.3 606.405 1343.11 613.006 1309.59 613.006V695.573Z" fill="#FF4300"/>
<path d="M784.148 695.573C739.79 695.573 695.865 686.836 654.883 669.861C613.901 652.885 576.664 628.004 545.297 596.638C513.931 565.271 489.05 528.034 472.074 487.052C455.099 446.07 446.362 402.145 446.362 357.787C446.362 313.428 455.099 269.503 472.074 228.521C489.05 187.539 513.931 150.302 545.297 118.935C576.664 87.569 613.901 62.6878 654.883 45.7125C695.865 28.7371 739.79 20 784.148 20L784.148 102.567C750.632 102.567 717.445 109.168 686.48 121.994C655.515 134.82 627.38 153.62 603.681 177.319C579.981 201.018 561.182 229.153 548.356 260.118C535.53 291.083 528.929 324.271 528.929 357.787C528.929 391.303 535.53 424.49 548.356 455.455C561.182 486.42 579.981 514.555 603.681 538.254C627.38 561.954 655.515 580.753 686.48 593.579C717.445 606.405 750.632 613.006 784.148 613.006L784.148 695.573Z" fill="#FF4300"/>
<path d="M784.148 20H1309.59V102.57H784.148L784.148 20Z" fill="#FF4300"/>
<path d="M784.148 613.003H1309.59V695.573H784.148L784.148 613.003Z" fill="#FF4300"/>
<path d="M278.219 1158.27C278.219 1184.29 272.814 1206.51 262.005 1224.92C251.196 1242.94 236.183 1256.75 216.967 1266.36C198.151 1275.97 176.533 1280.77 152.112 1280.77C132.896 1280.77 114.88 1278.37 98.0662 1273.56C81.6523 1269.16 67.4402 1263.76 55.4301 1257.35C43.4199 1250.94 34.6124 1245.54 29.0076 1241.14V1148.06H41.0178C53.8287 1160.07 69.4419 1170.68 87.8576 1179.88C106.273 1188.69 123.488 1193.1 139.501 1193.1C147.508 1193.1 154.514 1191.89 160.519 1189.49C166.925 1186.69 171.929 1182.89 175.532 1178.08C179.135 1173.28 180.937 1167.67 180.937 1161.27C180.937 1150.86 177.534 1142.45 170.728 1136.05C164.322 1129.64 154.114 1122.44 140.102 1114.43L98.0662 1090.41C85.6557 1083.2 73.4453 1074.59 61.4352 1064.59C49.425 1054.58 39.4165 1041.97 31.4097 1026.75C23.8032 1011.54 20 992.726 20 970.307C20 943.484 25.6048 920.865 36.8143 902.449C48.0238 884.033 62.8363 870.222 81.252 861.014C100.068 851.406 120.886 846.602 143.705 846.602C160.92 846.602 176.733 848.403 191.145 852.006C205.557 855.209 218.568 859.813 230.178 865.818C242.188 871.423 252.197 878.228 260.204 886.235V979.314H248.194C235.383 965.703 220.37 954.893 203.155 946.887C186.341 938.48 169.727 934.276 153.313 934.276C143.305 934.276 134.697 936.878 127.491 942.083C120.685 946.887 117.283 954.093 117.283 963.701C117.283 973.709 121.886 982.517 131.094 990.123C140.302 997.73 152.913 1006.34 168.926 1015.95L212.163 1042.37C225.775 1050.77 237.384 1060.38 246.993 1071.19C257.001 1081.6 264.608 1094.01 269.812 1108.42C275.417 1122.44 278.219 1139.05 278.219 1158.27Z" fill="#2A2C2B"/>
<path d="M287.203 1273.56V1258.55L370.674 853.207L530.41 853.808L613.88 1258.55V1273.56H514.796L499.784 1178.08H401.3L386.287 1273.56H287.203ZM413.911 1095.21H487.173L463.153 943.284H437.931L413.911 1095.21Z" fill="#2A2C2B"/>
<path d="M600.36 853.207H699.444L751.087 1179.88H776.309L827.953 853.207H927.037V868.22L843.566 1272.96L683.83 1273.56L600.36 868.22V853.207Z" fill="#2A2C2B"/>
<path d="M913.516 1273.56V1258.55L996.987 853.207L1156.72 853.808L1240.19 1258.55V1273.56H1141.11L1126.1 1178.08H1027.61L1012.6 1273.56H913.516ZM1040.22 1095.21H1113.49L1089.47 943.284H1064.24L1040.22 1095.21Z" fill="#2A2C2B"/>
<path d="M1271.25 853.207H1366.13V1273.56H1270.04L1271.25 853.207ZM1427.38 853.207C1451.4 853.207 1472.82 858.011 1491.63 867.619C1510.45 876.827 1525.26 891.039 1536.07 910.256C1546.88 929.072 1552.28 952.892 1552.28 981.716C1552.28 1011.34 1546.28 1035.96 1534.27 1055.58C1522.26 1075.2 1506.65 1090.01 1487.43 1100.02C1468.61 1109.62 1448.6 1114.43 1427.38 1114.43H1317.49V853.207H1427.38ZM1366.13 1033.36H1414.77C1423.17 1033.36 1430.18 1031.36 1435.79 1027.35C1441.79 1023.35 1446.19 1017.75 1449 1010.54C1452.2 1002.93 1453.8 994.527 1453.8 985.319C1453.8 976.111 1452.2 968.105 1449 961.299C1446.19 954.493 1441.79 949.289 1435.79 945.686C1430.18 941.682 1423.17 939.681 1414.77 939.681H1366.13V1033.36ZM1385.94 1063.39H1477.22L1552.28 1258.55V1273.56H1453.2L1385.94 1063.39Z" fill="#2A2C2B"/>
<path d="M1808.8 853.207V939.681H1686.29V1028.56C1698.3 1024.15 1710.71 1020.75 1723.52 1018.35C1736.33 1015.54 1748.94 1013.74 1761.36 1012.94C1773.77 1012.14 1785.38 1012.34 1796.19 1013.54V1097.01L1790.18 1100.62C1781.77 1097.81 1771.96 1096.21 1760.75 1095.81C1749.95 1095.41 1738.14 1096.01 1725.32 1097.61C1712.51 1099.22 1699.5 1102.22 1686.29 1106.62V1187.09H1808.8V1273.56H1591.41V853.207H1808.8Z" fill="#2A2C2B"/>
<path d="M2068 853.207V939.681H1945.5V1028.56C1957.51 1024.15 1969.92 1020.75 1982.73 1018.35C1995.54 1015.54 2008.15 1013.74 2020.56 1012.94C2032.97 1012.14 2044.58 1012.34 2055.39 1013.54V1097.01L2049.38 1100.62C2040.98 1097.81 2031.17 1096.21 2019.96 1095.81C2009.15 1095.41 1997.34 1096.01 1984.53 1097.61C1971.72 1099.22 1958.71 1102.22 1945.5 1106.62V1187.09H2068V1273.56H1850.62V853.207H2068Z" fill="#2A2C2B"/>
</svg>
