<svg width="214" height="150" viewBox="0 0 214 150" fill="none" xmlns="http://www.w3.org/2000/svg">
<path d="M81.4768 46.4553C81.4768 34.3816 91.0315 23.9583 103.539 23.9583C114.31 23.9583 125.776 31.6021 126.21 45.413C126.297 47.4108 126.123 49.3217 125.863 50.7984H93.6373C94.6797 55.1414 98.5015 57.7472 103.539 57.7472C107.622 57.7472 109.62 56.3575 111.01 55.2283L124.473 55.3151C120.999 63.2195 113.094 68.7786 103.887 68.7786C91.3789 68.7786 81.4768 58.7896 81.4768 46.4553ZM93.6373 41.7648H114.137C112.399 37.6824 108.23 34.9897 103.887 34.9897C98.849 34.9897 95.3745 37.6824 93.6373 41.7648Z" fill="#FF4300"/>
<path d="M81.1271 50.7944C81.1271 47.6475 81.1271 44.7629 81.1271 41.7562H81.9662C81.3455 44.7353 81.302 47.8224 81.8945 50.7944H81.1271Z" fill="#FF4300"/>
<path d="M72.3857 46.4553C72.3857 34.3816 62.831 23.9583 50.323 23.9583C39.5523 23.9583 28.0866 31.6021 27.6523 45.413C27.5655 47.4108 27.7392 49.3217 27.9998 50.7984H60.2252C59.1828 55.1414 55.361 57.7472 50.323 57.7472C46.2406 57.7472 44.2428 56.3575 42.853 55.2283L29.3895 55.3151C32.864 63.2195 40.7683 68.7786 49.9756 68.7786C62.4836 68.7786 72.3857 58.7896 72.3857 46.4553ZM60.2252 41.7648H39.726C41.4632 37.6824 45.6325 34.9897 49.9756 34.9897C55.0135 34.9897 58.488 37.6824 60.2252 41.7648Z" fill="#FF4300"/>
<path d="M81.1271 50.7944C81.1271 47.6475 81.1271 44.7629 81.1271 41.7562H71.8963C72.517 44.7353 72.5605 47.8224 71.968 50.7944H81.1271Z" fill="#FF4300"/>
<path d="M107.526 85.6727C112.692 85.6727 117.807 84.6552 122.58 82.6784C127.352 80.7015 131.688 77.804 135.341 74.1513C138.994 70.4986 141.891 66.1622 143.868 61.3897C145.845 56.6172 146.862 51.502 146.862 46.3363C146.862 41.1706 145.845 36.0555 143.868 31.283C141.891 26.5105 138.994 22.1741 135.341 18.5213C131.688 14.8686 127.352 11.9711 122.58 9.9943C117.807 8.01746 112.692 7 107.526 7V16.6152C111.429 16.6152 115.294 17.3839 118.9 18.8776C122.506 20.3712 125.782 22.5604 128.542 25.3203C131.302 28.0802 133.491 31.3566 134.985 34.9625C136.479 38.5685 137.247 42.4333 137.247 46.3363C137.247 50.2394 136.479 54.1042 134.985 57.7101C133.491 61.3161 131.302 64.5925 128.542 67.3524C125.782 70.1122 122.506 72.3015 118.9 73.7951C115.294 75.2887 111.429 76.0575 107.526 76.0575V85.6727Z" fill="#FF4300"/>
<path d="M46.3363 85.6727C41.1706 85.6727 36.0555 84.6552 31.283 82.6784C26.5105 80.7015 22.1741 77.804 18.5213 74.1513C14.8686 70.4986 11.9711 66.1622 9.9943 61.3897C8.01746 56.6172 7 51.502 7 46.3363C7 41.1706 8.01746 36.0555 9.9943 31.283C11.9711 26.5105 14.8686 22.1741 18.5213 18.5213C22.1741 14.8686 26.5105 11.9711 31.283 9.9943C36.0555 8.01746 41.1706 7 46.3363 7L46.3363 16.6152C42.4333 16.6152 38.5685 17.3839 34.9625 18.8776C31.3566 20.3712 28.0802 22.5604 25.3203 25.3203C22.5604 28.0802 20.3712 31.3566 18.8776 34.9625C17.3839 38.5685 16.6152 42.4333 16.6152 46.3363C16.6152 50.2394 17.3839 54.1042 18.8776 57.7101C20.3712 61.3161 22.5604 64.5925 25.3203 67.3524C28.0802 70.1122 31.3566 72.3015 34.9625 73.7951C38.5685 75.2887 42.4333 76.0575 46.3363 76.0575L46.3363 85.6727Z" fill="#FF4300"/>
<path d="M46.3363 7H107.526V16.6155H46.3363L46.3363 7Z" fill="#FF4300"/>
<path d="M46.3363 76.0571H107.526V85.6727H46.3363L46.3363 76.0571Z" fill="#FF4300"/>
<path d="M33.434 129.608C33.434 132.328 32.8655 134.643 31.7286 136.551C30.6323 138.459 29.1096 139.921 27.1605 140.936C25.2115 141.911 22.9985 142.398 20.5215 142.398C18.5725 142.398 16.7453 142.155 15.0398 141.667C13.3344 141.221 11.8523 140.672 10.5936 140.023C9.37541 139.373 8.48209 138.825 7.91362 138.378V127.963H9.25359C10.553 129.181 12.1163 130.257 13.9435 131.191C15.8113 132.084 17.4965 132.531 18.9988 132.531C19.7297 132.531 20.3388 132.43 20.8261 132.227C21.354 131.983 21.76 131.658 22.0442 131.252C22.3285 130.846 22.4706 130.399 22.4706 129.912C22.4706 128.978 22.1458 128.247 21.4961 127.719C20.887 127.151 19.8922 126.481 18.5116 125.709L14.9789 123.821C13.7202 123.09 12.4614 122.217 11.2026 121.202C9.98449 120.147 8.96935 118.827 8.15725 117.243C7.38575 115.66 7 113.69 7 111.335C7 108.533 7.56847 106.178 8.70542 104.27C9.88297 102.321 11.426 100.859 13.3344 99.8845C15.2835 98.8694 17.4355 98.3618 19.7907 98.3618C21.4555 98.3618 23.0188 98.5242 24.4806 98.8491C25.9423 99.1739 27.2823 99.6409 28.5005 100.25C29.7186 100.818 30.7541 101.549 31.6068 102.443V112.858H30.2668C28.9268 111.437 27.4041 110.32 25.6987 109.508C23.9933 108.655 22.4097 108.229 20.9479 108.229C20.0952 108.229 19.3846 108.432 18.8161 108.838C18.2477 109.244 17.9634 109.833 17.9634 110.604C17.9634 111.498 18.4101 112.289 19.3034 112.98C20.2373 113.67 21.5164 114.502 23.1406 115.477L26.9169 117.791C28.2974 118.604 29.475 119.558 30.4495 120.654C31.4241 121.75 32.1549 123.03 32.6422 124.491C33.1701 125.953 33.434 127.659 33.434 129.608Z" fill="#1F1F1F"/>
<path d="M32.8835 141.667V140.023L40.9233 99.0318L58.0993 99.0927L66.1392 140.023V141.667H54.993L53.7749 132.957H45.3087L44.0905 141.667H32.8835ZM46.4659 123.699H52.6176L50.6077 109.143H48.4759L46.4659 123.699Z" fill="#1F1F1F"/>
<path d="M63.3088 99.0318H74.5159L78.9013 131.069H81.0939L85.4793 99.0318H96.6254V100.676L88.5856 141.606L71.3487 141.667L63.3088 100.676V99.0318Z" fill="#1F1F1F"/>
<path d="M93.7342 141.667V140.023L101.774 99.0318L118.95 99.0927L126.99 140.023V141.667H115.844L114.626 132.957H106.159L104.941 141.667H93.7342ZM107.317 123.699H113.468L111.458 109.143H109.327L107.317 123.699Z" fill="#1F1F1F"/>
<path d="M128.56 99.0318H139.28V141.667H128.438L128.56 99.0318ZM144.762 99.0318C147.198 99.0318 149.37 99.5191 151.279 100.494C153.228 101.468 154.751 102.93 155.847 104.879C156.943 106.787 157.491 109.203 157.491 112.127C157.491 115.172 156.862 117.71 155.603 119.74C154.385 121.73 152.802 123.233 150.852 124.248C148.903 125.222 146.853 125.709 144.701 125.709H133.92V99.0318H144.762ZM139.341 116.634H143.3C144.031 116.634 144.62 116.472 145.066 116.147C145.513 115.781 145.838 115.274 146.041 114.624C146.284 113.975 146.406 113.264 146.406 112.492C146.406 111.762 146.284 111.132 146.041 110.604C145.838 110.036 145.513 109.589 145.066 109.264C144.62 108.899 144.031 108.716 143.3 108.716H139.341V116.634ZM140.072 120.045L150.365 120.167L157.613 140.023V141.667H146.467L140.072 120.045Z" fill="#1F1F1F"/>
<path d="M182.047 99.0318V108.716H170.474V116.391C171.652 115.984 172.829 115.66 174.007 115.416C175.225 115.132 176.403 114.949 177.54 114.868C178.717 114.787 179.814 114.807 180.829 114.929V124.369L180.159 124.735C179.387 124.451 178.474 124.288 177.418 124.248C176.403 124.166 175.306 124.207 174.129 124.369C172.951 124.491 171.733 124.755 170.474 125.161V131.983H182.047V141.667H159.815V99.0318H182.047Z" fill="#1F1F1F"/>
<path d="M207 99.0318V108.716H195.428V116.391C196.605 115.984 197.783 115.66 198.96 115.416C200.178 115.132 201.356 114.949 202.493 114.868C203.67 114.787 204.767 114.807 205.782 114.929V124.369L205.112 124.735C204.34 124.451 203.427 124.288 202.371 124.248C201.356 124.166 200.26 124.207 199.082 124.369C197.904 124.491 196.686 124.755 195.428 125.161V131.983H207V141.667H184.769V99.0318H207Z" fill="#1F1F1F"/>
</svg>
